inDegrees=no
num_controls=7
num_derivatives=13
num_iterations=122
num_multipliers=7
num_parameters=0
num_slacks=7
num_states=26
objective=5.197034
objective_accelerations=0.535565
objective_balance=0.032770
objective_effort=0.309615
objective_height=4.213336
objective_ligament=0.105748
solver_duration=1358.307705
status=Solve_Succeeded
success=true
DataType=double
version=3
OpenSimVersion=4.4-2022-07-23-0e9fedc
endheader
time	/jointset/ground_pelvis/pelvis_tilt/value	/jointset/ground_pelvis/pelvis_tx/value	/jointset/ground_pelvis/pelvis_ty/value	/jointset/hip_l/hip_flexion_l/value	/jointset/hip_l/hip_adduction_l/value	/jointset/hip_l/hip_rotation_l/value	/jointset/back/lumbar_extension/value	/jointset/patellofemoral_l/patellar_flexion_l/value	/jointset/knee_l/knee_flexion_l/value	/jointset/knee_l/knee_adduction_l/value	/jointset/knee_l/knee_rotation_l/value	/jointset/ankle_l/ankle_angle_l/value	/jointset/subtalar_l/subtalar_angle_l/value	/jointset/ground_pelvis/pelvis_tilt/speed	/jointset/ground_pelvis/pelvis_tx/speed	/jointset/ground_pelvis/pelvis_ty/speed	/jointset/hip_l/hip_flexion_l/speed	/jointset/hip_l/hip_adduction_l/speed	/jointset/hip_l/hip_rotation_l/speed	/jointset/back/lumbar_extension/speed	/jointset/patellofemoral_l/patellar_flexion_l/speed	/jointset/knee_l/knee_flexion_l/speed	/jointset/knee_l/knee_adduction_l/speed	/jointset/knee_l/knee_rotation_l/speed	/jointset/ankle_l/ankle_angle_l/speed	/jointset/subtalar_l/subtalar_angle_l/speed	/forceset/tau_hip_flexion_l	/forceset/tau_hip_adduction_l	/forceset/tau_hip_rotation_l	/forceset/tau_knee_flexion_l	/forceset/tau_ankle_angle_l	/forceset/tau_subtalar_angle_l	/forceset/tau_lumbar_extension	lambda_cid13_p0	lambda_cid13_p1	lambda_cid13_p2	lambda_cid13_p3	lambda_cid13_p4	lambda_cid13_p5	lambda_cid14_p0	/jointset/ground_pelvis/pelvis_tilt/accel	/jointset/ground_pelvis/pelvis_tx/accel	/jointset/ground_pelvis/pelvis_ty/accel	/jointset/hip_l/hip_flexion_l/accel	/jointset/hip_l/hip_adduction_l/accel	/jointset/hip_l/hip_rotation_l/accel	/jointset/back/lumbar_extension/accel	/jointset/patellofemoral_l/patellar_flexion_l/accel	/jointset/knee_l/knee_flexion_l/accel	/jointset/knee_l/knee_adduction_l/accel	/jointset/knee_l/knee_rotation_l/accel	/jointset/ankle_l/ankle_angle_l/accel	/jointset/subtalar_l/subtalar_angle_l/accel	gamma_cid13_p0	gamma_cid13_p1	gamma_cid13_p2	gamma_cid13_p3	gamma_cid13_p4	gamma_cid13_p5	gamma_cid14_p0
1.5	-0.4553842089136942	-0.07736892575597282	0.7782975383916706	1.119539972035412	-0.4185386374359059	-0.3081269737906794	-0.2276134475171844	0.571570312969217	0.5715703129692258	-0.1673157909269795	-0.1606426681893521	-0.0614018722451442	-0.097658552686561	0.93187360569999	0.4240393327682764	0.4491102785345187	-2.461529224943832	0.2154192080950121	-0.5256403315467768	0.3073248289949584	-1.386090334358331	-1.386090334358117	-0.02348173076323084	0.08600945576945147	0.07546001245393477	0.2661456377208142	-0.2144302814412762	0.01881170915721311	-0.003400665124357379	-0.1486813187993687	0.09992062877535993	0.05726027361877731	0.1939482219333418	-1.556630277322415	-27.09976876101393	6.844910512331938	-9.619727065704451	-524.5327747665903	-65.84201225679698	-35.70689986287969	0.6649519271751312	0.76463795306532	-0.3487144933717943	-1.50184188773439	0.4592953627274583	-0.08265771937031983	1.525446633925921	-0.9243540905646513	-0.9243540905646535	0.04420218518847292	0.2774162494689938	0.08389357622583499	0.5645420485379544	-3.173029868421567e-08	5.45105383867759e-07	1.299076200827602e-08	2.009000194382198e-07	1.53880909614378e-07	-2.02500588444708e-07	9.255325109697941e-08
1.51	-0.4460326131026315	-0.07309072223810346	0.7827702985468277	1.094851657487936	-0.4163624165757888	-0.3133879559198417	-0.2244651872215903	0.5576652696803559	0.557665269680357	-0.1675493097598832	-0.1597702018473866	-0.06064316131706445	-0.09496983232081738	0.9383090943296343	0.43154832195751	0.4453467462933078	-2.475790382460819	0.219797791348016	-0.5264893528349384	0.3222990121178982	-1.394724269725458	-1.394724269725317	-0.02322104954058909	0.08847541343696919	0.07628099901827164	0.2715730838611451	-0.2072743856033126	0.01801276808457441	-0.003436107829486297	-0.1469199967427435	0.09737444372645157	0.05559516838551604	0.1883624034537761	-2.140225338156456	-26.35557793128451	6.818956222280992	-9.095665688623185	-520.7777409511748	-65.90099491740862	-36.19276365011473	0.6123663500130228	0.7361136473279097	-0.4043897158231719	-1.336767435929825	0.4229533843372644	-0.07593114859279503	1.479171450571151	-0.8038238592500556	-0.803823859260978	0.01726470646758906	0.2298844827237398	0.08102456771357362	0.5279503845795985	-3.496552386615841e-08	5.690863698491333e-07	1.600574853111421e-08	2.05495393418098e-07	1.63873318551062e-07	-1.961822899071344e-07	9.30224159625716e-08
1.52	-0.4366207586014469	-0.06873901197924671	0.7872025799543073	1.070031028414838	-0.4141432471675912	-0.3186554096248854	-0.2211680316349497	0.5436797049179227	0.5436797049179274	-0.1677801690573951	-0.1588733361373195	-0.05987627584910571	-0.09222761659611046	0.9439253437254461	0.438740680965755	0.441014528999022	-2.487992130067757	0.2240089177110298	-0.5269346467252461	0.3371038872045716	-1.402194629071117	-1.402194629071049	-0.02294982369131657	0.09088932939771803	0.07709492042964902	0.27684470951344	-0.2001184897653174	0.01721382701197317	-0.003471550534392072	-0.145158674686133	0.09482825867755747	0.05393006315229821	0.1827765849742139	-2.734390881427621	-25.61036307573113	6.793783141979192	-8.540939051007893	-517.1597109500801	-65.98490389550315	-36.6586281921562	0.5011040804086201	0.7013119168676681	-0.4624515039867704	-1.089959905724329	0.425803984729446	-0.001912239799580575	1.491585026672622	-0.6916388862710244	-0.6916388862710416	0.04631111051460219	0.2670079081152044	0.08248054563400155	0.5333779509307537	-3.746621563432806e-08	5.898287370628815e-07	1.762901210240799e-08	2.077917732788686e-07	1.75177189677744e-07	-1.891734477381522e-07	9.307647362456757e-08
1.53	-0.42715683993156	-0.06431704099798609	0.7915887439614858	1.045098700570676	-0.4118828391458048	-0.3239253735383896	-0.217723906134379	0.5296252978283621	0.5296252978283579	-0.1680082841409555	-0.1579526561399534	-0.05910129892851404	-0.08943350988651956	0.94871579866401	0.4455917989432413	0.4361269950299538	-2.498115595136629	0.2280410995545359	-0.5269924192584653	0.3516752268703974	-1.408482005943554	-1.408482005943543	-0.02267148126902241	0.09323451077520943	0.07789963504255062	0.2819466371138337	-0.1928782277121018	0.016293479721173	-0.003533507944574394	-0.1434133212668121	0.09237476610619527	0.05215944295408956	0.1770761634689361	-3.301720455486669	-24.82762275046143	6.766740474255962	-7.972147353570717	-513.5234216701292	-65.99585322537	-37.10196050409464	0.4466131203709462	0.6677958003159594	-0.5155570199418097	-0.9198756525027446	0.3870708377828304	0.002231009569147591	1.433010530644101	-0.5665881495059603	-0.566588149514338	0.01897367226090143	0.2164063676136831	0.07934188024691215	0.4940026398066902	-3.918646565036381e-08	6.071300718360272e-07	1.777357003768587e-08	2.076454718880874e-07	1.878744893812988e-07	-1.814309029607985e-07	9.268947988274255e-08
